# xmcd
#
# Track frame offsets: 
#        150
#        13868
#        34384
#        52426
#
# Disc length: 944 seconds
#
# Revision: 0
# Processed by: cddbd v1.5.2PL0 Copyright (c) Steve Scherf et al.
# Submitted via: ExactAudioCopy v0.95b4
#
DISCID=3803ae04
DTITLE=Colin Gilmore - Black Wine
DYEAR=2007
DGENRE=Rockabilly
TTITLE0=Laughing Hard or Crying
TTITLE1=Llano
TTITLE2=Black Vines
TTITLE3=Time to Fly Away Again
EXTD=
EXTT0=
EXTT1=
EXTT2=
EXTT3=
PLAYORDER=
